<svg width="24" height="24" viewBox="0 0 24 24" fill="none" xmlns="http://www.w3.org/2000/svg">
<path d="M4 19H20M11.2929 5.70708L8.70711 8.29286C8.31658 8.68339 7.68342 8.68339 7.29289 8.29287L5.70711 6.70708C5.07714 6.07711 4 6.52328 4 7.41419V15C4 15.5523 4.44772 16 5 16H19C19.5523 16 20 15.5523 20 15V7.41418C20 6.52328 18.9229 6.07711 18.2929 6.70708L16.7071 8.29287C16.3166 8.68339 15.6834 8.68339 15.2929 8.29287L12.7071 5.70708C12.3166 5.31655 11.6834 5.31655 11.2929 5.70708Z" stroke="#001A72" stroke-width="1.5" stroke-linecap="round" stroke-linejoin="round"/>
</svg>
