<svg width="24" height="24" viewBox="0 0 24 24" fill="none" xmlns="http://www.w3.org/2000/svg">
<path d="M10.9999 12C10.9999 12.8284 10.3284 13.5 9.49994 13.5C8.67151 13.5 7.99994 12.8284 7.99994 12C7.99994 11.1716 8.67151 10.5 9.49994 10.5C10.3284 10.5 10.9999 11.1716 10.9999 12Z" stroke="#001A72" stroke-width="1.5" stroke-linecap="round" stroke-linejoin="round"/>
<path d="M20.9999 16V8C20.9999 6.89543 20.1045 6 18.9999 6H8.82837C8.29794 6 7.78923 6.21071 7.41416 6.58579L3.41416 10.5858C2.63311 11.3668 2.63311 12.6332 3.41416 13.4142L7.41416 17.4142C7.78923 17.7893 8.29794 18 8.82837 18H18.9999C20.1045 18 20.9999 17.1046 20.9999 16Z" stroke="#001A72" stroke-width="1.5" stroke-linecap="round" stroke-linejoin="round"/>
</svg>
